<svg fill="none" height="20" viewBox="0 0 112 20" width="112" xmlns="http://www.w3.org/2000/svg"><g clip-rule="evenodd" fill="#786f90" fill-rule="evenodd"><path d="m99.4313 4.68809c.0007-1.0062-.8006-1.81592-1.7995-1.81826-1.0105-.00238-1.8218.80972-1.8174 1.81925.0043 1.00895.8031 1.80587 1.8094 1.8051 1.0065-.00073 1.8067-.80032 1.8075-1.80609zm-.3043 3.50646c-.0345-.00509-.058-.01146-.0814-.01146-.9369-.00073-1.8739.00169-2.8109-.00417-.1245-.0008-.151.07032-.1837.15815-.3288.8834-.6585 1.76643-.9872 2.64983-.0155.0417-.0231.0864-.0395.1493h1.0933v8.1096h3.0094zm-8.0595 10.82325c0-1.7066-.0066-3.4132.0051-5.1198.0026-.3689.0426-.7431.1141-1.1051.1852-.9381.7094-1.4738 1.6033-1.6112.4117-.0632.8366-.046 1.2557-.0503.1319-.0014.1895-.043.2341-.1649.2964-.811.6011-1.61909.9023-2.42833.0414-.1111.0789-.22371.1169-.33163-.5477 0-1.0776-.02831-1.6034.00586-1.1149.07247-1.9773.58185-2.5365 1.56925-.0282.04982-.0586.0983-.0879.14739-.0128-.00304-.0254-.00607-.0381-.00911v-1.7271h-2.9794v11.04977h3.0138zm-33.1995.0005c0-2.1826.0082-4.3652-.0066-6.5477-.0031-.4597-.0527-.9266-.1459-1.3767-.2197-1.0609-.7396-1.94038-1.6811-2.52592-.6302-.39198-1.3271-.55448-2.0621-.59315-1.0878-.05725-2.0546.2346-2.8773.96344-.1531.13558-.3011.27686-.4614.4248v-1.16918h-2.9793v11.04391h3.0111v-.232c0-1.9631-.0032-3.9262.0037-5.8893.0009-.2722.029-.5489.084-.8154.2138-1.0352.8415-1.6492 1.8196-1.7358 1.0185-.0902 1.874.3497 2.1246 1.4798.0706.3183.1024.6512.1039.9776.0093 1.9997.0047 3.9994.0047 5.9991v.221h3.0621zm-19.3441-6.6519h5.3161c-.0406-.3116-.3563-.8115-.6882-1.098-.95-.8203-2.5808-.8749-3.6379-.1216-.4344.3096-.7602.7069-.99 1.2196zm8.4264 2.4358h-8.5383c.0848.7991.9295 1.6391 1.8976 1.896 1.3288.3526 2.8477.0302 3.6803-1.4514.7927.4734 1.585.9467 2.3878 1.4262-.3507.6033-.782 1.118-1.3122 1.5468-1.0277.831-2.2154 1.212-3.5254 1.254-1.2277.0392-2.3858-.2082-3.4303-.8682-1.5081-.9527-2.3662-2.3374-2.5855-4.1027-.2254-1.815.2716-3.4172 1.5302-4.75451.9254-.98319 2.0711-1.56328 3.4124-1.72918 1.4517-.17963 2.8141.08754 4.0332.9188 1.329.9063 2.1003 2.18549 2.3308 3.76829.0986.6767.0817 1.3702.1194 2.0959zm-14.6963-11.2771c-1.3548-.62619-2.7794-.78258-4.2416-.57011-1.1795.17139-2.2254.65282-3.0667 1.52034-1.0393 1.07169-1.4083 2.36013-1.1979 3.82637.1651 1.15016.7521 2.0351 1.7256 2.6496.3987.2516.8231.4808 1.2642.6428.9116.3351 1.8431.6158 2.7647.9238.5026.1679.9968.3581 1.4303.6728.3299.2394.5899.5372.6469.9565.1103.8106-.1792 1.4683-.8363 1.9387-.7059.5052-1.5093.5404-2.3261.3678-1.1507-.2432-1.9816-.9395-2.6087-1.9082-.0351-.0542-.0716-.1075-.1154-.1731-.9384.7403-1.863 1.4698-2.7934 2.2039.0364.0466.0568.0762.0805.1027.5315.5919 1.1179 1.1208 1.7887 1.5507 1.7215 1.1031 3.6074 1.4351 5.6082 1.1545.9808-.1375 1.8761-.5185 2.6373-1.1642 1.2828-1.0882 1.8799-2.4796 1.7797-4.165-.0545-.9177-.3595-1.7343-.9782-2.4237-.561-.625-1.2555-1.0642-2.0249-1.368-.875-.34542-1.7705-.63855-2.6574-.95364-.5734-.20369-1.1486-.40395-1.6442-.7723-.3017-.22432-.5282-.50308-.5947-.88727-.1394-.80658.3159-1.58407 1.1367-1.85709 1.0541-.35061 2.0739-.23318 2.9942.39725.3598.2465.6488.59663.9856.91417.7955-.60252 1.6341-1.23781 2.482-1.88002-.4904-.59619-1.4775-1.34723-2.2391-1.6993zm35.0953 10.1803c-.0146-.1573-.0217-.3157-.0446-.4717-.3061-2.0871-2.4057-3.0983-4.2295-2.151-1.144.5942-1.7089 1.8184-1.4791 3.1812.2913 1.7273 1.9084 2.6853 3.4604 2.3731 1.3658-.2748 2.2812-1.4717 2.2928-2.9316zm-.0907-4.4474v-6.15832h3.0044v16.14322h-2.9955v-1.2072c-.0714.0632-.1114.0939-.146.1298-.8092.841-1.81 1.2435-2.962 1.3074-2.3314.1294-5.0038-1.529-5.4821-4.6163-.224-1.4457-.0919-2.8502.6229-4.1489.8499-1.54423 2.1829-2.42002 3.9135-2.68264 1.1078-.16814 2.1726-.01299 3.1522.55529.2709.15716.5065.37544.7579.56622.0365.02762.0706.05824.1347.11143zm19.2235-2.42075c-.6397-1.06836-1.4735-1.95303-2.5229-2.62199-1.8614-1.18666-3.9005-1.56402-6.0638-1.23488-2.4258.36912-4.3264 1.59475-5.6327 3.68098-1.1647 1.86016-1.5118 3.90054-1.1277 6.05174.4285 2.3994 1.6644 4.2835 3.7512 5.5588 1.8076 1.1045 3.7885 1.4124 5.8638 1.0955 1.9735-.3014 3.5914-1.2478 4.8172-2.8313 1.1394-1.4718 1.6594-3.164 1.7004-5.0132.01-.4488.0015-.8979.0015-1.3557-.0623-.0042-.1037-.0094-.1451-.0094-2.6901-.0004-5.3802.0007-8.0703-.0034-.1441-.0002-.1703.0529-.1696.1819.0047.8657.0022 1.7313.003 2.597 0 .0529.0072.1057.012.1719h5.0288c.0027.0264.0065.0388.0047.0502-.0037.0241-.0087.0482-.0159.0714-.3207 1.0268-.8857 1.8788-1.7887 2.4828-.9086.6079-1.9223.8209-3.0004.7762-1.3612-.0564-2.5544-.5285-3.5289-1.4895-2.1614-2.1317-2.0645-5.77085.2061-7.8088 1.156-1.03745 2.5218-1.44403 4.0619-1.30044 1.4216.13254 2.5755.75258 3.4477 1.88466.2106.27342.3899.5711.5896.86665.8842-.53715 1.7722-1.0766 2.6762-1.62581-.0391-.07006-.0672-.12354-.0981-.17531zm22.1369 6.86915c-.015-.1512-.024-.3031-.044-.4536-.263-2.0116-2.33-3.1111-4.154-2.2164-.949.4657-1.697 1.5152-1.601 2.9191.126 1.8283 1.876 3.1099 3.646 2.6544 1.271-.3271 2.142-1.5073 2.153-2.9035zm2.943 5.5473h-3.036v-1.1691c-.025-.0161-.051-.0323-.076-.0484-.038.0605-.066.1307-.115.1801-.893.8977-1.99 1.2739-3.237 1.2594-2.289-.0267-4.819-1.7465-5.1886-4.8542-.1512-1.2721-.0371-2.5122.5326-3.6717.823-1.67526 2.191-2.63673 4.022-2.92167 1.185-.18438 2.316.00037 3.342.65523.243.155.46.35039.717.54827v-3.06552-3.08191h3.039z"/><path d="m6.26312 6.4951h6.26318v-6.4951h-6.26318z" opacity=".8"/><path d="m12.5263 6.4951h6.2631v-6.4951h-6.2631z" opacity=".6"/><path d="m6.26312 12.9902h6.26318v-6.4951h-6.26318z"/><path d="m12.5263 12.9902h6.2631v-6.4951h-6.2631z" opacity=".8"/><path d="m0 12.9902h6.26313v-6.4951h-6.26313z" opacity=".5"/><path d="m0 19.4853h6.26313v-6.4951h-6.26313z" opacity=".8"/><path d="m6.26312 19.4853h6.26318v-6.4951h-6.26318z" opacity=".5"/></g></svg>