<svg fill="none" height="23" viewBox="0 0 105 23" width="105" xmlns="http://www.w3.org/2000/svg"><path clip-rule="evenodd" d="m20.1507 0c.888 0 1.6097.733167 1.6097 1.63795v19.43715c0 .9048-.7217 1.6392-1.6097 1.6392h-18.54522c-.885553 0-1.60548-.7344-1.60548-1.6392v-19.43715c0-.904783.719927-1.63795 1.60548-1.63795zm-15.31008 3.127c-1.03667 0-1.87206.87513-1.87206 1.95343 0 1.07893.83539 1.95406 1.87206 1.95406 1.03244 0 1.87084-.87513 1.87084-1.95406 0-1.0783-.8384-1.95343-1.87084-1.95343zm-1.61576 16.2281h3.2303v-10.83977h-3.2303zm5.25529-10.83977v10.83977h3.22365v-5.3612c0-1.4146.2563-2.7844 1.9355-2.7844 1.6563 0 1.6774 1.6171 1.6774 2.874v5.2716h3.2267v-5.9448c0-2.9195-.6039-5.16375-3.871-5.16375-1.5705 0-2.6241.89847-3.0544 1.75089h-.0442v-1.48211zm28.41585-.97133c-.5013-.736-1.232-1.104-2.192-1.104-.2987 0-.592.04-.88.12s-.5467.20267-.776.368-.4133.37867-.552.64-.208.568-.208.92c0 .512.144.90933.432 1.192s.6453.5147 1.072.696.8933.344 1.4.488.9733.336 1.4.576.784.5573 1.072.952.432.9333.432 1.616c0 .512-.1093.9733-.328 1.384s-.5067.7547-.864 1.032-.7573.4907-1.2.64-.888.224-1.336.224c-.6933 0-1.352-.1307-1.976-.392s-1.1547-.6907-1.592-1.288l1.04-.752c.2453.416.5867.7493 1.024 1s.9547.376 1.552.376c.288 0 .576-.0453.864-.136s.5467-.224.776-.4.4187-.392.568-.648.224-.5493.224-.88c0-.3947-.0827-.7227-.248-.984s-.384-.48-.656-.656-.5813-.3227-.928-.44-.704-.2347-1.072-.352-.7253-.2507-1.072-.4-.656-.3387-.928-.568-.4907-.5173-.656-.864c-.1653-.34667-.248-.78133-.248-1.304 0-.544.104-1.01866.312-1.424s.4853-.74133.832-1.008.7387-.464 1.176-.592.8853-.192 1.344-.192c.64 0 1.2213.10133 1.744.304s1.008.56 1.456 1.072zm4.448 9.456h-1.056v-12.096h1.056zm4.08-10.368c0 .224-.08.408-.24.552s-.336.216-.528.216-.368-.072-.528-.216-.24-.328-.24-.552.08-.408.24-.552.336-.216.528-.216.368.072.528.216.24.328.24.552zm-.24 10.368h-1.056v-7.488h1.056zm10.016 0h-1.056v-1.248h-.032c-.1707.256-.3733.4747-.608.656s-.48.3307-.736.448-.52.2027-.792.256-.5307.08-.776.08c-.5867 0-1.1227-.0987-1.608-.296s-.904-.472-1.256-.824-.6267-.768-.824-1.248-.296-1.0027-.296-1.568.0987-1.088.296-1.568.472-.896.824-1.248.7707-.62667 1.256-.824 1.0213-.296 1.608-.296c.2453 0 .504.02667.776.08s.536.13867.792.256.5013.26667.736.448c.2347.1813.4373.4.608.656h.032v-5.856h1.056zm-6.832-3.744c0 .416.0667.8053.2 1.168s.3227.6773.568.944.5413.4773.888.632.7387.232 1.176.232c.4267 0 .824-.0773 1.192-.232s.6853-.3653.952-.632.4747-.5813.624-.944.224-.752.224-1.168-.0747-.8053-.224-1.168-.3573-.6773-.624-.944-.584-.4773-.952-.632-.7653-.232-1.192-.232c-.4373 0-.8293.0773-1.176.232s-.6427.3653-.888.632-.4347.5813-.568.944-.2.752-.2 1.168zm9.872.288c.032.3733.1227.7253.272 1.056s.3467.616.592.856.528.4293.848.568.6667.208 1.04.208c.5653 0 1.0533-.1307 1.464-.392s.7227-.5627.936-.904l.816.672c-.448.5653-.9413.9707-1.48 1.216s-1.1173.368-1.736.368c-.5547 0-1.0693-.0987-1.544-.296s-.8827-.472-1.224-.824-.6107-.768-.808-1.248-.296-1.0027-.296-1.568.096-1.088.288-1.568.4587-.896.8-1.248.7413-.62667 1.2-.824.9547-.296 1.488-.296c.5653 0 1.072.10133 1.52.304s.824.472 1.128.808.536.7307.696 1.184.24.936.24 1.448v.48zm5.088-.864c0-.7147-.2133-1.2933-.64-1.736s-1.024-.664-1.792-.664c-.3413 0-.672.0667-.992.2s-.6.312-.84.536-.432.48-.576.768-.216.5867-.216.896zm8.816-5.136c-.5013-.736-1.232-1.104-2.192-1.104-.2987 0-.592.04-.88.12s-.5467.20267-.776.368-.4133.37867-.552.64-.208.568-.208.92c0 .512.144.90933.432 1.192s.6453.5147 1.072.696.8933.344 1.4.488.9733.336 1.4.576.784.5573 1.072.952.432.9333.432 1.616c0 .512-.1093.9733-.328 1.384s-.5067.7547-.864 1.032-.7573.4907-1.2.64-.888.224-1.336.224c-.6933 0-1.352-.1307-1.976-.392s-1.1547-.6907-1.592-1.288l1.04-.752c.2453.416.5867.7493 1.024 1s.9547.376 1.552.376c.288 0 .576-.0453.864-.136s.5467-.224.776-.4.4187-.392.568-.648.224-.5493.224-.88c0-.3947-.0827-.7227-.248-.984s-.384-.48-.656-.656-.5813-.3227-.928-.44-.704-.2347-1.072-.352-.7253-.2507-1.072-.4-.656-.3387-.928-.568-.4907-.5173-.656-.864c-.1653-.34667-.248-.78133-.248-1.304 0-.544.104-1.01866.312-1.424s.4853-.74133.832-1.008.7387-.464 1.176-.592.8853-.192 1.344-.192c.64 0 1.2213.10133 1.744.304s1.008.56 1.456 1.072zm3.152-2.64h1.056v5.808h.032c.1173-.2027.2667-.3893.448-.56.1813-.17067.384-.31733.608-.44s.4613-.21867.712-.288.4987-.104.744-.104c.96 0 1.6693.25333 2.128.76.4587.5067.688 1.2293.688 2.168v4.752h-1.056v-4.144c0-.832-.144-1.4693-.432-1.912s-.8213-.664-1.6-.664c-.0533 0-.2027.0213-.448.064s-.504.16-.776.352-.5147.48-.728.864-.32.9173-.32 1.6v3.84h-1.056zm13.696 7.504v-.192c0-1.2907-.64-1.936-1.92-1.936-.8747 0-1.6373.2933-2.288.88l-.64-.752c.704-.72534 1.76-1.088 3.168-1.088.3627 0 .712.05333 1.048.16s.6267.26933.872.488c.2453.2187.4427.4933.592.824s.224.7253.224 1.184v3.344c0 .288.0133.5893.04.904s.056.5733.088.776h-1.024c-.032-.1813-.056-.3787-.072-.592s-.024-.4213-.024-.624h-.032c-.3093.5013-.6747.8613-1.096 1.08s-.936.328-1.544.328c-.3307 0-.6507-.0453-.96-.136s-.584-.2293-.824-.416-.432-.416-.576-.688-.216-.5893-.216-.952c0-.608.1573-1.0853.472-1.432s.7093-.6053 1.184-.776.9813-.2773 1.52-.32 1.032-.064 1.48-.064zm-.544.864c-.2667 0-.6.0133-1 .04s-.784.0907-1.152.192-.6827.2587-.944.472-.392.5067-.392.88c0 .2453.0507.456.152.632s.2373.32.408.432.36.192.568.24.4187.072.632.072c.384 0 .7173-.064 1-.192s.52-.3013.712-.52.3333-.4747.424-.768.136-.6053.136-.936v-.544zm4.16-1.424c0-.3307-.008-.6667-.024-1.008s-.0293-.784-.04-1.328h1.04v1.392h.032c.0747-.2027.1813-.3973.32-.584s.3067-.35467.504-.504.4267-.26933.688-.36.5573-.136.888-.136c.2987 0 .56.032.784.096l-.208 1.04c-.1387-.0533-.3413-.08-.608-.08-.4053 0-.752.0773-1.04.232s-.528.352-.72.592-.3333.4987-.424.776-.136.544-.136.8v4.224h-1.056zm5.936 1.696c.032.3733.1227.7253.272 1.056s.3467.616.592.856.528.4293.848.568.667.208 1.04.208c.565 0 1.053-.1307 1.464-.392s.723-.5627.936-.904l.816.672c-.448.5653-.941.9707-1.48 1.216s-1.117.368-1.736.368c-.555 0-1.069-.0987-1.544-.296-.4747-.1973-.8827-.472-1.224-.824s-.6107-.768-.808-1.248-.296-1.0027-.296-1.568.096-1.088.288-1.568.4587-.896.8-1.248.7413-.62667 1.2-.824c.459-.19733.955-.296 1.488-.296.565 0 1.072.10133 1.52.304s.824.472 1.128.808.536.7307.696 1.184.24.936.24 1.448v.48zm5.088-.864c0-.7147-.213-1.2933-.64-1.736s-1.024-.664-1.792-.664c-.341 0-.672.0667-.992.2s-.6.312-.84.536-.432.48-.576.768-.216.5867-.216.896z" fill="#786f90" fill-rule="evenodd"/></svg>