<svg fill="none" height="25" viewBox="0 0 112 25" width="112" xmlns="http://www.w3.org/2000/svg"><path clip-rule="evenodd" d="m98.6027 6.75543c.4266.02851.5487.14308.6011.59258.0157.13046.0204.26257.0204.39413.0011 3.04016.0011 6.08086-.001 9.12156 0 .1858-.0147.3727-.0346.5575-.0388.3563-.1567.4763-.4916.529-.163.0252-.3255.0586-.4748.086-.0844.3777-.0692.9917.0267 1.2307.0655.0087.1373.0268.2091.0268 1.1756.0017 2.351.0022 3.526-.0005.09 0 .179-.0252.297-.0433.011-.4369.034-.8464-.015-1.2712-.315-.0439-.603-.0839-.876-.1217-.146-.1776-.103-.3722-.103-.5537-.003-3.8196-.002-7.63982-.004-11.45947 0-.14856-.016-.29711-.025-.43415-.35-.08606-2.8592-.07401-3.1192.01315v1.27066c.162.02248.3124.05153.4639.06194zm-66.6632 4.91047c.0026 1.6144-.0011 3.2293.0036 4.8437.0011.4818.0079.9637.1316 1.4367.2012.768.6682 1.2575 1.393 1.4664.2909.0838.5954.1222.8967.1568.8438.0953 1.6493-.0686 2.4213-.426.0823-.0378.1525-.103.2453-.1666-.1315-.4939-.2563-.9648-.3868-1.4538-.1174.0401-.1976.0609-.273.0943-.3947.1743-.8061.2275-1.2322.2028-.49-.0285-.8364-.2905-.9674-.7888-.0666-.251-.1111-.5169-.1127-.7767-.0105-1.5925-.0063-3.1849-.0042-4.7773.0005-.1151.0246-.2303.0419-.3794h2.3191c.1971-.5262.3863-1.03.5938-1.58363-.1698-.00877-.2814-.01918-.3931-.01973-.7033-.00164-1.4066.00055-2.1105-.00219-.1436-.00055-.2961.02247-.4355-.12279-.0052-.09813-.0162-.21708-.0168-.33603-.0015-.48294.0021-.96643-.0005-1.44936-.001-.11512-.0204-.22969-.0314-.34754h-1.0812c-.1992.54488-.369 1.08866-.7123 1.54419-.3595.47691-.8495.73181-1.382.88146-.0969.48842-.1666.93632-.1876 1.43292h1.2405c.0168.2258.0398.3985.0404.5706zm32.0832-2.08958c-.8014-.30259-1.631-.37605-2.4784-.33658-1.8307.08551-3.2515 1.22786-3.8269 3.03906-.271.8535-.2568 1.73-.2757 2.5989-.0142.6874.119 1.3737.348 2.0309.4402 1.263 1.2557 2.1171 2.4973 2.4843.6698.1985 1.3568.2473 2.0565.1667.8868-.102 1.6928-.4079 2.4297-.9248.0849-.0597.163-.1299.2741-.2192-.2631-.4907-.5168-.9632-.7841-1.4609-.1278.0806-.2264.1387-.3202.2028-.4905.3371-1.0209.5619-1.6063.6293-.9937.1151-1.9968-.3262-2.3941-1.445-.4433-1.2487-.4533-2.5237-.0623-3.778.4523-1.4504 1.6419-1.7897 2.8547-1.5151.2788.0636.3993.2412.4125.5443.0083.1864.0026.3733.0031.5603v.6539c.5713-.0685 1.1022-.0356 1.6299-.1688v-2.64876c-.2217-.22037-.4937-.31356-.7578-.41332zm41.7373 3.80868c.097-.5531.261-1.0815.57-1.5508.459-.6961 1.091-1.0322 1.901-.99.664.034 1.09.4917 1.087 1.1885-.002.581-.238 1.0289-.738 1.3145-.415.2368-.867.3311-1.326.3678-.427.034-.858.0143-1.287.0132-.059 0-.118-.0296-.209-.0549 0-.0992-.015-.1968.002-.2883zm4.383 3.9309c-.646.3733-1.334.5751-2.076.5652-1.193-.0159-2.022-.7351-2.26-1.963-.037-.1902-.107-.3799-.021-.5855.04-.0104.08-.029.119-.0306.545-.017 1.09-.011 1.633-.0516.714-.0531 1.415-.1869 2.073-.5016.604-.2883 1.081-.7213 1.35-1.3638.231-.552.308-1.1418.257-1.7399-.107-1.2504-.826-2.0929-2.012-2.31436-.45-.08387-.919-.10306-1.377-.08223-1.597.07346-2.812.84909-3.558 2.32429-.892 1.7662-.917 3.6294-.319 5.4904.408 1.2663 1.298 2.0491 2.546 2.3593.645.1607 1.298.2133 1.965.1409.827-.0893 1.605-.3218 2.334-.7329.106-.0597.2-.1431.311-.2236-.203-.5033-.393-.9763-.604-1.4998-.144.0833-.252.1463-.361.2088zm-70.1923-3.8443c.0875-.6501.2888-1.2553.6792-1.7783.4843-.6495 1.131-.9203 1.9061-.8403.5933.0614.9528.4994.9607 1.1309.01.7417-.2898 1.2317-.9669 1.4751-.3622.1299-.7479.2143-1.1295.256-.404.0444-.8154.017-1.2237.0148-.0687-.0005-.1368-.0329-.2138-.0526-.0053-.0795-.02-.1442-.0121-.2056zm2.2756 1.718c.62-.0603 1.2206-.2248 1.7709-.5394.7086-.4057 1.1986-1.0032 1.3333-1.8528.0629-.3969.0812-.8091.0608-1.2109-.0488-.9473-.4963-1.63469-1.3249-2.0354-.4948-.2401-1.0225-.30807-1.5629-.32123-.9239-.02247-1.7934.16336-2.5842.68522-.8318.54931-1.3794 1.33421-1.7332 2.27931-.2353.6282-.349 1.2816-.3936 1.9558-.0634.9643.0126 1.9088.3186 2.822.4366 1.3003 1.3008 2.1269 2.5843 2.4525.6457.1639 1.2998.2045 1.9669.1376.8281-.0833 1.6038-.3196 2.3349-.7274.1069-.0592.2038-.1381.3102-.211-.1074-.2763-.1934-.5241-.2998-.762-.1079-.2417-.1509-.5202-.3443-.7318-.0948.0565-.1761.1036-.2568.1524-.6803.4067-1.4093.6287-2.1954.5948-.8537-.0368-1.5419-.3887-1.9585-1.2093-.1798-.3541-.2605-.74-.315-1.132-.0084-.0597.0162-.1244.0241-.1776.783-.057 1.5251-.097 2.2646-.1688zm41.2029-3.602c.0016 1.4367-.0058 2.8735.0026 4.3102.0105 1.7574-1.644 2.3769-2.7976 1.8282-.4549-.216-.7447-.6129-.8914-1.098-.1195-.3942-.2186-.8058-.2485-1.2159-.0613-.8431-.0424-1.6878.1761-2.5128.107-.4045.2558-.7882.4937-1.1303.4376-.6293 1.0561-.9006 1.7694-.8924.4234.0049.8458.1288 1.2677.205.0582.0104.1106.0559.2034.1058.0094.142.0241.2713.0246.4002zm1.8553-1.80572c-1.3432-.45224-2.7096-.68083-4.123-.47526-1.8092.26312-3.1126 1.47238-3.6 3.31258-.2505.9461-.2741 1.906-.2374 2.8735.022.5942.1169 1.178.3129 1.7394.3532 1.0113.9601 1.7612 1.9622 2.1225.5277.1896 1.0675.211 1.6152.2017.8768-.0159 1.6105-.3563 2.1954-1.0432.0666-.0784.1426-.148.2469-.2554.1708.3404.0314.7011.1975.9818.3386.0959 2.3658.0761 2.6126-.0357.0116-.3771.0221-.7652-.0073-1.1599-.1866-.0291-.3312-.0471-.4743-.074-.359-.0685-.4539-.1875-.4628-.5772-.0026-.1097-.001-.2193-.001-.3295 0-2.2508 0-4.5021.0005-6.7534v-.40568c-.1074-.05591-.1693-.09922-.2374-.12224zm-32.2929 1.78212c.0027 1.4691 0 2.9382.0016 4.4073.0016 1.2328-.9423 2.0381-2.1346 1.9383-.8883-.0746-1.4046-.6468-1.62-1.5064-.3317-1.3244-.294-2.6487.1415-3.9457.1803-.5383.488-.9911.9796-1.2827.3081-.1831.6414-.2752.9884-.2955.5377-.0312 1.0602.0658 1.6048.273.0152.1546.0387.2829.0387.4117zm2.774 6.4404c-.5938-.0619-.6729-.1529-.6739-.7778v-.1974c0-2.2387.0005-4.4774-.0006-6.7161-.0005-.1398-.0136-.2796-.0193-.40076-.0509-.03892-.0745-.06194-.1017-.07619-.0467-.02412-.0949-.0466-.1447-.06304-1.3432-.45169-2.7116-.68466-4.1209-.45991-1.8605.29656-3.0444 1.4121-3.5669 3.2967-.2621.9472-.3119 1.9164-.2495 2.8971.0414.6501.1425 1.2854.3752 1.8917.3868 1.0053 1.0535 1.6971 2.0628 2.0096.4916.1524.9927.1612 1.4963.1458.8622-.0258 1.5864-.3678 2.1608-1.0465.0661-.0778.1421-.1463.2752-.2812.0498.3958.0896.7099.1347 1.0651.4628.0011.8904.011 1.3176.0017.4334-.0088.871.0438 1.3091-.0346v-1.2142c-.1111-.0175-.1824-.0323-.2542-.04zm34.8704-.9719c-.0021-1.4598.0152-2.9195-.0068-4.3788-.0152-1.0097.6121-1.6203 1.501-1.736.3773-.0488.7515-.0099 1.11.1513.6132.2757.9428.8003 1.1006 1.4378.3118 1.2553.2929 2.5167-.0477 3.766-.054.1984-.1426.3897-.2348.5728-.3795.7565-1.0613 1.1418-1.9669 1.0607-.2909-.0258-.5807-.0899-.8643-.1644-.1886-.0494-.3658-.1486-.5618-.2314-.0115-.177-.0288-.3278-.0293-.478zm-1.8406 1.8715c.1845.0778.3689.1606.5597.2181 1.1766.3564 2.3699.563 3.6015.4249.5928-.0664 1.1509-.2385 1.6656-.5531.7757-.4736 1.2866-1.1808 1.6163-2.0409.2882-.7515.3952-1.5392.4612-2.3423.0755-.9198.011-1.8199-.2175-2.7058-.2164-.8387-.6347-1.5414-1.3155-2.06985-1.0125-.78552-3.0025-.86665-4.1439.09648-.0928.07837-.1919.14967-.3454.26857-.0189-.21485-.0404-.35134-.0409-.48729-.0026-1.30684-.001-2.61367-.0026-3.92051-.0005-.12827-.0142-.256-.0236-.4199-.5367-.03727-1.0482-.02302-1.5586-.0159-.5178.00768-1.0398-.05097-1.5576.03783v1.31122c.1839.02028.3474.03782.5104.05701.3119.03618.4549.165.5058.48513.0241.15075.022.30643.0225.45992.001 3.52469.0005 7.04999.0005 10.57479v.4708c.1164.068.1856.1184.2621.1508zm-22.5935-12.20338v-1.28382c.2547-.07619 2.7043-.09319 3.1005-.02083.0099.11402.0309.23955.0309.36508.0021 1.53707.0005 3.07414.0021 4.61125 0 .1238.0147.2483.0267.4379.0991-.0909.1536-.1222.1824-.1704.6168-1.0147 1.5251-1.42692 2.6435-1.40993.4429.00603.8794.04386 1.2982.21269.5885.23736 1.0094.65284 1.2625 1.25804.2311.5542.3097 1.1397.3129 1.7344.0089 1.6577.0031 3.3159.0047 4.9736 0 .1398.0136.2795.0236.4588.3034.0395.5891.0767.9093.1184.0278.421.0189.8305.0052 1.2268-.2578.0987-3.6178.12-4.0224.028-.0534-.3821-.0262-.7774-.012-1.1951.1378-.0175.2395-.0307.3412-.0427.4669-.057.6032-.2089.6048-.6995.0031-.9993.0015-1.9981.001-2.9974 0-.5268.0136-1.0547-.0068-1.5803-.0105-.2708-.0524-.5488-.1321-.8059-.1352-.4368-.4376-.7082-.8715-.8173-1.2122-.3042-2.3066.4435-2.513 1.7268-.0325.2044-.0514.4138-.0525.6216-.0047 1.3172-.0031 2.6345-.001 3.9523 0 .1398.0168.2796.0283.4604.294.0362.5702.0702.8412.1037.088.2483.098.9516.0209 1.2651-.2463.0834-3.645.0921-3.9794 0-.0503-.3749-.0225-.763-.0168-1.1873.1688-.034.3182-.0713.4702-.0932.3873-.0559.5361-.2171.5413-.6255.0063-.5048.0021-1.0097.0021-1.5151v-8.13539c0-.07674.0006-.15349 0-.23023-.0042-.52569-.131-.66274-.6252-.69069-.1326-.00768-.2641-.03344-.4208-.05427zm-54.2615 18.24058c-6.60566.0042-11.93943204-5.5659-11.94039988-12.4695-.00092385-6.89305 5.32808988-12.47050346 11.91609988-12.47169982 6.6026-.00115035 11.9322 5.57478982 11.9295 12.48079982-.0028 6.8813-5.3293 12.4562-11.9052 12.4604zm-2.66167-11.6153c0 .828-.01038 1.6561.00387 2.4839.00867.5046.02512 1.0128.09111 1.5117.12815.9681.57622 1.7123 1.48069 2.0868.4822.1997.9873.2777 1.504.2967.9692.0357 1.8958-.1317 2.7692-.5899.1638-.0859.2243-.1708.1639-.3707-.1412-.4672-.2649-.9407-.3794-1.4159-.0462-.1915-.1132-.2006-.269-.1206-.4965.2551-1.0248.365-1.5778.3171-.4827-.0419-.8701-.253-1.0259-.7601-.084-.2735-.1411-.5689-.1432-.8549-.0143-1.9549-.0087-3.9099-.0162-5.8648-.0007-.18844.0845-.21034.229-.20965.755.00363 1.5101-.00414 2.2649.00566.1792.0023.2591-.06438.3126-.23826.1549-.50312.3271-1.00035.4906-1.50052.0868-.26523.0851-.2678-.1805-.26808-.9602-.00101-1.9204-.00455-2.8806.00285-.1826.00138-.2389-.06046-.2365-.25041.0089-.71284.0001-1.42597.0058-2.13891.0013-.15677-.0445-.21967-.2-.21572-.337.00852-.6745.01054-1.0113-.00115-.1619-.00561-.2277.06318-.2804.21641-.124.35969-.2494.72182-.41213 1.0632-.37636.78969-.9593 1.32543-1.80727 1.50056-.11825.02444-.17135.08398-.18727.21061-.05926.47077-.12481.94076-.19427 1.41005-.02279.15369.03031.20812.17443.20615.35176-.00474.70397.00892 1.05534-.00465.19995-.00773.26277.05894.26079.27256-.00986 1.0732-.00449 2.1466-.00449 3.22z" fill="#786f90" fill-rule="evenodd"/></svg>