<svg width="555" height="383" viewBox="0 0 555 383" xmlns="http://www.w3.org/2000/svg"><title>cin-graph</title><g transform="translate(1)" fill="none" fill-rule="evenodd"><circle fill="#F3F3F3" cx="260" cy="190" r="70"/><g transform="translate(0 149)"><rect stroke="#333" stroke-width="2" y="1" width="106" height="81" rx="6"/><path fill="#333" d="M13 0h2v81h-2z"/><circle fill="#333" cx="7" cy="10" r="3"/><circle fill="#333" cx="7" cy="20" r="3"/><circle fill="#333" cx="7" cy="30" r="3"/><circle fill="#333" cx="7" cy="40" r="3"/><circle fill="#333" cx="7" cy="50" r="3"/></g><g fill="#000"><path d="M58.323 188a1 1 0 0 0-1-1h-10.3a1 1 0 1 0 0 2h10.3a1 1 0 0 0 1-1zM47.023 191a1 1 0 1 0 0 2h6.255a1 1 0 1 0 0-2h-6.255z"/><path d="M49.373 200.6h-3.344c-1.103 0-2-.897-2-2V181c0-1.103.897-2 2-2h12.294c1.103 0 2 .897 2 2v6.15a1 1 0 1 0 2 0V181c0-2.206-1.794-4-4-4H46.029c-2.206 0-4 1.794-4 4v17.6c0 2.206 1.794 4 4 4h3.344a1 1 0 1 0 0-2z"/><path d="M64.094 191.479a3.003 3.003 0 0 0-4.242-.001l-5.49 5.478a1 1 0 0 0-.25.417l-1.196 3.936a1 1 0 0 0 1.224 1.255l4.036-1.118a1 1 0 0 0 .44-.256l5.478-5.469a3.003 3.003 0 0 0 0-4.242zm-6.705 8.11l-2.03.562.593-1.957 3.705-3.696 1.414 1.415-3.682 3.675zm5.292-5.282l-.194.193-1.414-1.414.193-.193a1.001 1.001 0 0 1 1.415 1.413z" fill-rule="nonzero"/><path d="M57.323 183h-10.3a1 1 0 1 0 0 2h10.3a1 1 0 1 0 0-2z"/></g><path d="M238.654 213h40.979c10.143 0 18.367-8.204 18.367-18.325 0-10.12-8.224-18.325-18.367-18.325-.022 0-.046.001-.1.005h-.01c-.086.006-.13.01-.189.01l-.66.01-.107-.646C276.954 166.128 268.612 159 258.76 159c-11.104 0-20.106 8.982-20.106 20.06v-.002l.003.09v.69l-.69.068c-8.46.833-14.967 7.957-14.967 16.503s6.505 15.668 14.965 16.506l.689.067V213z" stroke="#333" stroke-width="2"/><g fill="#000"><path d="M265.323 188a1 1 0 0 0-1-1h-10.3a1 1 0 1 0 0 2h10.3a1 1 0 0 0 1-1zM254.023 191a1 1 0 1 0 0 2h6.256a1 1 0 1 0 0-2h-6.256z"/><path d="M256.373 200.6h-3.344c-1.103 0-2-.897-2-2V181c0-1.103.897-2 2-2h12.294c1.103 0 2 .897 2 2v6.15a1 1 0 1 0 2 0V181c0-2.206-1.794-4-4-4h-12.294c-2.206 0-4 1.794-4 4v17.6c0 2.206 1.794 4 4 4h3.344a1 1 0 1 0 0-2z"/><path d="M271.094 191.479a3.003 3.003 0 0 0-4.242-.001l-5.49 5.478a1 1 0 0 0-.25.417l-1.196 3.936a1 1 0 0 0 1.224 1.255l4.036-1.118a1 1 0 0 0 .44-.256l5.478-5.469a3.003 3.003 0 0 0 0-4.242zm-6.705 8.11l-2.03.562.593-1.957 3.705-3.696 1.414 1.415-3.682 3.675zm5.292-5.282l-.194.193-1.414-1.414.193-.193a1.001 1.001 0 0 1 1.415 1.413z" fill-rule="nonzero"/><path d="M264.323 183h-10.3a1 1 0 1 0 0 2h10.3a1 1 0 1 0 0-2z"/></g><g transform="translate(414 22)"><circle fill="#F3F3F3" cx="70" cy="268" r="70"/><g transform="translate(25 228)"><rect stroke="#333" stroke-width="2" x="1" width="89" height="80" rx="6"/><path fill="#333" d="M89 16v2H0v-2z"/><circle fill="#333" cx="8" cy="9" r="3"/><circle fill="#333" cx="18" cy="9" r="3"/><circle fill="#333" cx="28" cy="9" r="3"/></g><g fill="#000"><path d="M75.323 272a1 1 0 0 0-1-1h-10.3a1 1 0 1 0 0 2h10.3a1 1 0 0 0 1-1zM64.023 275a1 1 0 1 0 0 2h6.255a1 1 0 1 0 0-2h-6.255z"/><path d="M66.373 284.6h-3.345c-1.102 0-2-.897-2-2V265c0-1.103.898-2 2-2h12.295c1.103 0 2 .897 2 2v6.15a1 1 0 1 0 2 0V265c0-2.206-1.794-4-4-4H63.029c-2.206 0-4 1.794-4 4v17.6c0 2.206 1.794 4 4 4h3.344a1 1 0 1 0 0-2z"/><path d="M81.094 275.479a3.003 3.003 0 0 0-4.242-.001l-5.49 5.478a1 1 0 0 0-.25.417l-1.196 3.936a1 1 0 0 0 1.224 1.255l4.036-1.118a1 1 0 0 0 .44-.256l5.478-5.469a3.003 3.003 0 0 0 0-4.242zm-6.705 8.11l-2.03.562.593-1.957 3.705-3.696 1.414 1.415-3.682 3.675zm5.292-5.282l-.194.193-1.414-1.414.193-.193a1.001 1.001 0 0 1 1.415 1.414z" fill-rule="nonzero"/><path d="M74.323 267h-10.3a1 1 0 1 0 0 2h10.3a1 1 0 1 0 0-2z"/></g><circle fill="#F3F3F3" cx="70" cy="70" r="70"/><path d="M48.654 94h40.979C99.776 94 108 85.796 108 75.675c0-10.12-8.224-18.325-18.367-18.325-.022 0-.046.001-.1.005h-.01c-.086.006-.13.01-.189.01l-.66.01-.107-.646C86.954 47.128 78.612 40 68.76 40c-11.104 0-20.106 8.982-20.106 20.06v-.002l.003.09v.69l-.69.068C39.506 61.74 33 68.863 33 77.41s6.505 15.668 14.965 16.506l.689.067V94z" stroke="#333" stroke-width="2"/><g fill="#000"><path d="M75.323 69a1 1 0 0 0-1-1h-10.3a1 1 0 1 0 0 2h10.3a1 1 0 0 0 1-1zM64.023 72a1 1 0 1 0 0 2h6.255a1 1 0 1 0 0-2h-6.255z"/><path d="M66.373 81.6h-3.345c-1.102 0-2-.897-2-2V62c0-1.103.898-2 2-2h12.295c1.103 0 2 .897 2 2v6.15a1 1 0 1 0 2 0V62c0-2.206-1.794-4-4-4H63.029c-2.206 0-4 1.794-4 4v17.6c0 2.206 1.794 4 4 4h3.344a1 1 0 1 0 0-2z"/><path d="M81.094 72.479a3.003 3.003 0 0 0-4.242-.001l-5.49 5.478a1 1 0 0 0-.25.417l-1.196 3.936a1 1 0 0 0 1.224 1.255l4.036-1.118a1 1 0 0 0 .44-.256l5.478-5.469a3.003 3.003 0 0 0 0-4.242zm-6.705 8.11l-2.03.562.593-1.957 3.705-3.696 1.414 1.415-3.682 3.675zm5.292-5.282l-.194.193-1.414-1.414.193-.193a1.001 1.001 0 0 1 1.415 1.413z" fill-rule="nonzero"/><path d="M74.323 64h-10.3a1 1 0 1 0 0 2h10.3a1 1 0 1 0 0-2z"/></g><path d="M70.6 181h.69a1 1 0 0 1 .965 1.263l-1.69 6.2a1 1 0 0 1-1.93 0l-1.69-6.2a1 1 0 0 1 .964-1.263h.69v-34a1 1 0 0 1 2 0v34z" fill="#979797" fill-rule="nonzero"/></g><path d="M173 191v-.69a1 1 0 0 1 1.263-.966l6.2 1.691a1 1 0 0 1 0 1.93l-6.2 1.69a1 1 0 0 1-1.263-.964V193h-58a1 1 0 1 1 0-2h58zM394.187 130.36l-.292-.627a1 1 0 0 1 .737-1.408l6.333-1.088a1 1 0 0 1 .816 1.749l-4.905 4.152a1 1 0 0 1-1.552-.34l-.292-.626-52.566 24.512a1 1 0 1 1-.845-1.813l52.566-24.512z" fill="#979797" fill-rule="nonzero"/><path d="M394.187 246.64l-.292.627a1 1 0 0 0 .737 1.408l6.333 1.088a1 1 0 0 0 .816-1.75l-4.905-4.152a1 1 0 0 0-1.552.341l-.292.626-52.566-24.512a1 1 0 1 0-.845 1.813l52.566 24.512z" fill="#EF4A25" fill-rule="nonzero"/><path d="M345.542 198.6h5.472l-.012 1.044h-4.308v2.76h3.876v1.044h-3.876V207h-1.152v-8.4zm6.708 2.052h1.116V207h-1.116v-6.348zm.552-2.532c.2 0 .366.068.498.204a.71.71 0 0 1 .198.516.71.71 0 0 1-.198.516.665.665 0 0 1-.498.204.665.665 0 0 1-.498-.204.71.71 0 0 1-.198-.516.71.71 0 0 1 .198-.516.665.665 0 0 1 .498-.204zm2.796-.024h1.116V207h-1.116v-8.904zm5.904 2.52c.984 0 1.728.29 2.232.87.504.58.756 1.386.756 2.418 0 .16-.004.28-.012.36h-5.016c.088.568.326 1.02.714 1.356.388.336.866.504 1.434.504.376 0 .726-.068 1.05-.204.324-.136.606-.328.846-.576l.612.636a3.206 3.206 0 0 1-1.128.78 3.76 3.76 0 0 1-1.464.276c-.624 0-1.178-.134-1.662-.402a2.824 2.824 0 0 1-1.128-1.134c-.268-.488-.402-1.044-.402-1.668 0-.624.134-1.178.402-1.662a2.927 2.927 0 0 1 1.122-1.14c.48-.276 1.028-.414 1.644-.414zm1.98 2.784c-.032-.576-.224-1.03-.576-1.362-.352-.332-.816-.498-1.392-.498-.56 0-1.026.168-1.398.504-.372.336-.594.788-.666 1.356h4.032zm2.592-5.304h1.116V207h-1.116v-8.904zm3.36 2.556h1.116V207h-1.116v-6.348zm.552-2.532c.2 0 .366.068.498.204a.71.71 0 0 1 .198.516.71.71 0 0 1-.198.516.665.665 0 0 1-.498.204.665.665 0 0 1-.498-.204.71.71 0 0 1-.198-.516.71.71 0 0 1 .198-.516.665.665 0 0 1 .498-.204zm6.264 2.496c.744 0 1.328.218 1.752.654.424.436.636 1.038.636 1.806V207h-1.116v-3.624c0-.536-.15-.954-.45-1.254-.3-.3-.714-.45-1.242-.45-.568.008-1.03.19-1.386.546-.356.356-.558.818-.606 1.386V207h-1.116v-6.348h1.116v1.344c.424-.904 1.228-1.364 2.412-1.38zm8.82 6.384l-2.028-3.084-1.236 1.284v1.8h-1.116v-8.904h1.116v5.676l3.072-3.12h1.308l-2.364 2.46 2.592 3.888h-1.344zm11.22 0l-1.668-2.64a5.877 5.877 0 0 1-.468.024h-2.136V207h-1.152v-8.4h3.288c1.064 0 1.886.246 2.466.738.58.492.87 1.19.87 2.094 0 .68-.158 1.252-.474 1.716-.316.464-.77.8-1.362 1.008L397.61 207h-1.32zm-2.136-3.66c.72 0 1.272-.158 1.656-.474.384-.316.576-.782.576-1.398 0-.6-.192-1.054-.576-1.362-.384-.308-.936-.462-1.656-.462h-2.136v3.696h2.136zm7.824-2.724c.984 0 1.728.29 2.232.87.504.58.756 1.386.756 2.418 0 .16-.004.28-.012.36h-5.016c.088.568.326 1.02.714 1.356.388.336.866.504 1.434.504.376 0 .726-.068 1.05-.204.324-.136.606-.328.846-.576l.612.636a3.206 3.206 0 0 1-1.128.78 3.76 3.76 0 0 1-1.464.276c-.624 0-1.178-.134-1.662-.402a2.824 2.824 0 0 1-1.128-1.134c-.268-.488-.402-1.044-.402-1.668 0-.624.134-1.178.402-1.662a2.927 2.927 0 0 1 1.122-1.14c.48-.276 1.028-.414 1.644-.414zm1.98 2.784c-.032-.576-.224-1.03-.576-1.362-.352-.332-.816-.498-1.392-.498-.56 0-1.026.168-1.398.504-.372.336-.594.788-.666 1.356h4.032zm5.94 3.18c-.488.312-.984.468-1.488.468s-.912-.15-1.224-.45c-.312-.3-.468-.754-.468-1.362v-3.516h-.9v-.852h.9v-1.704h1.128v1.704h1.944v.852h-1.944v3.312c0 .352.064.604.192.756.128.152.32.228.576.228.304 0 .632-.1.984-.3l.3.864zm6.972-5.928V207h-1.128v-1.344c-.416.904-1.2 1.364-2.352 1.38-.736 0-1.312-.218-1.728-.654-.416-.436-.624-1.038-.624-1.806v-3.924h1.128v3.624c0 .536.146.954.438 1.254.292.3.694.45 1.206.45.592-.008 1.062-.218 1.41-.63.348-.412.522-.938.522-1.578v-3.12h1.128zm3.288 1.368c.208-.456.504-.802.888-1.038s.84-.358 1.368-.366v1.08c-.648-.024-1.172.144-1.572.504-.4.36-.628.844-.684 1.452V207h-1.116v-6.348h1.116v1.368zm6.996-1.404c.744 0 1.328.218 1.752.654.424.436.636 1.038.636 1.806V207h-1.116v-3.624c0-.536-.15-.954-.45-1.254-.3-.3-.714-.45-1.242-.45-.568.008-1.03.19-1.386.546-.356.356-.558.818-.606 1.386V207h-1.116v-6.348h1.116v1.344c.424-.904 1.228-1.364 2.412-1.38zm6.924 0c.984 0 1.728.29 2.232.87.504.58.756 1.386.756 2.418 0 .16-.004.28-.012.36h-5.016c.088.568.326 1.02.714 1.356.388.336.866.504 1.434.504.376 0 .726-.068 1.05-.204.324-.136.606-.328.846-.576l.612.636a3.206 3.206 0 0 1-1.128.78 3.76 3.76 0 0 1-1.464.276c-.624 0-1.178-.134-1.662-.402a2.824 2.824 0 0 1-1.128-1.134c-.268-.488-.402-1.044-.402-1.668 0-.624.134-1.178.402-1.662a2.927 2.927 0 0 1 1.122-1.14c.48-.276 1.028-.414 1.644-.414zm1.98 2.784c-.032-.576-.224-1.03-.576-1.362-.352-.332-.816-.498-1.392-.498-.56 0-1.026.168-1.398.504-.372.336-.594.788-.666 1.356h4.032zm8.448-5.304V207h-1.116v-1.26c-.24.424-.562.75-.966.978-.404.228-.874.342-1.41.342-.6 0-1.13-.138-1.59-.414a2.844 2.844 0 0 1-1.074-1.152c-.256-.492-.384-1.054-.384-1.686 0-.624.128-1.178.384-1.662a2.822 2.822 0 0 1 1.074-1.134c.46-.272.986-.408 1.578-.408.544 0 1.02.112 1.428.336.408.224.728.548.96.972v-3.816h1.116zm-3.264 8.004c.416 0 .786-.096 1.11-.288.324-.192.578-.46.762-.804.184-.344.276-.732.276-1.164 0-.44-.092-.832-.276-1.176a2.022 2.022 0 0 0-.762-.804 2.136 2.136 0 0 0-1.11-.288c-.416 0-.786.098-1.11.294a2.065 2.065 0 0 0-.762.81 2.429 2.429 0 0 0-.276 1.164c0 .432.092.82.276 1.164.184.344.438.612.762.804.324.192.694.288 1.11.288zm-70.53 7.5h1.152v8.4h-1.152v-8.4zm6.972 2.016c.744 0 1.328.218 1.752.654.424.436.636 1.038.636 1.806V222h-1.116v-3.624c0-.536-.15-.954-.45-1.254-.3-.3-.714-.45-1.242-.45-.568.008-1.03.19-1.386.546-.356.356-.558.818-.606 1.386V222h-1.116v-6.348h1.116v1.344c.424-.904 1.228-1.364 2.412-1.38zm7.848 1.44a3.803 3.803 0 0 0-.87-.384 3.116 3.116 0 0 0-.906-.144c-.336 0-.606.062-.81.186-.204.124-.306.314-.306.57 0 .256.114.45.342.582.228.132.574.266 1.038.402.44.128.8.256 1.08.384s.518.316.714.564c.196.248.294.576.294.984 0 .6-.226 1.056-.678 1.368-.452.312-1.014.468-1.686.468-.472 0-.93-.076-1.374-.228a3.125 3.125 0 0 1-1.122-.648l.42-.816c.264.24.59.432.978.576.388.144.766.216 1.134.216.368 0 .664-.068.888-.204.224-.136.336-.344.336-.624a.71.71 0 0 0-.354-.648c-.236-.144-.594-.288-1.074-.432a7.195 7.195 0 0 1-1.038-.366 1.843 1.843 0 0 1-.684-.546c-.188-.24-.282-.552-.282-.936 0-.592.216-1.036.648-1.332.432-.296.972-.444 1.62-.444.384 0 .762.054 1.134.162.372.108.694.254.966.438l-.408.852zm5.46 4.524c-.488.312-.984.468-1.488.468s-.912-.15-1.224-.45c-.312-.3-.468-.754-.468-1.362v-3.516h-.9v-.852h.9v-1.704h1.128v1.704h1.944v.852h-1.944v3.312c0 .352.064.604.192.756.128.152.32.228.576.228.304 0 .632-.1.984-.3l.3.864zm5.232.42v-.888c-.472.624-1.212.936-2.22.936-.44 0-.826-.084-1.158-.252a1.855 1.855 0 0 1-.768-.696 1.879 1.879 0 0 1-.27-.996c0-.568.21-1.018.63-1.35.42-.332 1.006-.502 1.758-.51h2.016v-.3c0-.448-.138-.794-.414-1.038-.276-.244-.678-.366-1.206-.366-.64 0-1.292.228-1.956.684l-.468-.768c.456-.296.878-.51 1.266-.642s.85-.198 1.386-.198c.792 0 1.404.194 1.836.582.432.388.652.93.66 1.626l.012 4.176h-1.104zm-1.992-.876c.52 0 .962-.126 1.326-.378a1.49 1.49 0 0 0 .654-1.002v-.636h-1.86c-.504 0-.878.076-1.122.228-.244.152-.366.392-.366.72 0 .328.124.588.372.78.248.192.58.288.996.288zm8.616-5.508c.744 0 1.328.218 1.752.654.424.436.636 1.038.636 1.806V222h-1.116v-3.624c0-.536-.15-.954-.45-1.254-.3-.3-.714-.45-1.242-.45-.568.008-1.03.19-1.386.546-.356.356-.558.818-.606 1.386V222h-1.116v-6.348h1.116v1.344c.424-.904 1.228-1.364 2.412-1.38zm7.788 5.964c-.488.312-.984.468-1.488.468s-.912-.15-1.224-.45c-.312-.3-.468-.754-.468-1.362v-3.516h-.9v-.852h.9v-1.704h1.128v1.704h1.944v.852h-1.944v3.312c0 .352.064.604.192.756.128.152.32.228.576.228.304 0 .632-.1.984-.3l.3.864zm1.416-8.484h1.116V222h-1.116v-8.904zm5.58 9.804c-.2.488-.466.856-.798 1.104a1.9 1.9 0 0 1-1.17.372 2.2 2.2 0 0 1-.744-.12 2.222 2.222 0 0 1-.648-.372l.48-.876c.28.2.564.3.852.3.48 0 .84-.272 1.08-.816l.24-.564-2.628-6.276h1.176l2.016 5.088 1.908-5.088h1.14l-2.904 7.248z" fill="#EF4A25"/><path d="M8.212 249.568c0 .776.214 1.382.642 1.818.428.436 1.018.654 1.77.654.744 0 1.328-.218 1.752-.654.424-.436.636-1.042.636-1.818V244.6h1.152v4.968c0 1.096-.314 1.956-.942 2.58-.628.624-1.494.936-2.598.936-1.112 0-1.984-.312-2.616-.936-.632-.624-.948-1.484-.948-2.58V244.6h1.152v4.968zm13.08-3.216a4.832 4.832 0 0 0-1.218-.558 4.115 4.115 0 0 0-1.158-.186c-.488 0-.878.094-1.17.282-.292.188-.438.446-.438.774 0 .296.088.538.264.726.176.188.392.336.648.444.256.108.612.234 1.068.378.568.176 1.028.344 1.38.504.352.16.652.398.9.714.248.316.372.734.372 1.254 0 .48-.13.9-.39 1.26s-.624.638-1.092.834c-.468.196-1.006.294-1.614.294-.616 0-1.216-.12-1.8-.36a4.881 4.881 0 0 1-1.512-.96l.516-.996c.4.392.85.694 1.35.906.5.212.986.318 1.458.318.56 0 1.002-.11 1.326-.33.324-.22.486-.518.486-.894 0-.296-.088-.54-.264-.732a1.861 1.861 0 0 0-.666-.456c-.268-.112-.63-.236-1.086-.372a11.101 11.101 0 0 1-1.368-.492 2.363 2.363 0 0 1-.894-.708c-.244-.312-.366-.724-.366-1.236 0-.448.124-.844.372-1.188s.596-.608 1.044-.792c.448-.184.968-.276 1.56-.276.504 0 .998.074 1.482.222.484.148.914.346 1.29.594l-.48 1.032zm2.484-1.752h5.832v1.044h-4.68v2.592h4.188v1.044h-4.188v2.676h4.824V253h-5.976v-8.4zm13.26 8.4l-1.668-2.64a5.877 5.877 0 0 1-.468.024h-2.136V253h-1.152v-8.4H34.9c1.064 0 1.886.246 2.466.738.58.492.87 1.19.87 2.094 0 .68-.158 1.252-.474 1.716-.316.464-.77.8-1.362 1.008L38.356 253h-1.32zm-2.136-3.66c.72 0 1.272-.158 1.656-.474.384-.316.576-.782.576-1.398 0-.6-.192-1.054-.576-1.362-.384-.308-.936-.462-1.656-.462h-2.136v3.696H34.9zm9.504.228c0 .776.214 1.382.642 1.818.428.436 1.018.654 1.77.654.744 0 1.328-.218 1.752-.654.424-.436.636-1.042.636-1.818V244.6h1.152v4.968c0 1.096-.314 1.956-.942 2.58-.628.624-1.494.936-2.598.936-1.112 0-1.984-.312-2.616-.936-.632-.624-.948-1.484-.948-2.58V244.6h1.152v4.968zm11.412-4.968c1.048 0 1.858.248 2.43.744.572.496.858 1.192.858 2.088 0 .936-.288 1.662-.864 2.178-.576.516-1.384.774-2.424.774h-2.088V253h-1.152v-8.4h3.24zm-.048 4.74c.72 0 1.272-.158 1.656-.474.384-.316.576-.782.576-1.398 0-.6-.192-1.054-.576-1.362-.384-.308-.936-.462-1.656-.462l-2.04.012v3.684h2.04zm4.86-4.74h1.152v7.356h3.672V253h-4.824v-8.4zm9.96-.072c.808 0 1.55.188 2.226.564.676.376 1.21.89 1.602 1.542.392.652.588 1.37.588 2.154 0 .784-.196 1.506-.588 2.166a4.255 4.255 0 0 1-1.602 1.56c-.676.38-1.418.57-2.226.57s-1.55-.19-2.226-.57c-.676-.38-1.21-.9-1.602-1.56a4.164 4.164 0 0 1-.588-2.166c0-.784.196-1.502.588-2.154a4.25 4.25 0 0 1 1.596-1.542 4.493 4.493 0 0 1 2.232-.564zm.012 1.032c-.584 0-1.126.144-1.626.432-.5.288-.898.678-1.194 1.17a3.095 3.095 0 0 0-.444 1.626c0 .592.148 1.136.444 1.632.296.496.694.89 1.194 1.182.5.292 1.042.438 1.626.438.584 0 1.122-.146 1.614-.438a3.298 3.298 0 0 0 1.176-1.182c.292-.496.438-1.04.438-1.632 0-.592-.146-1.134-.438-1.626a3.264 3.264 0 0 0-1.176-1.17 3.138 3.138 0 0 0-1.614-.432zM82.9 253l-.888-2.04h-4.428l-.876 2.04h-1.212l3.732-8.4h1.2l3.72 8.4H82.9zm-4.86-3.084h3.528l-1.776-4.08-1.752 4.08zm10.752-5.316c.816 0 1.554.182 2.214.546.66.364 1.178.866 1.554 1.506.376.64.564 1.356.564 2.148s-.19 1.508-.57 2.148a4.05 4.05 0 0 1-1.566 1.506c-.664.364-1.408.546-2.232.546h-3.384v-8.4h3.42zm.024 7.356c.584 0 1.114-.136 1.59-.408a2.994 2.994 0 0 0 1.128-1.128c.276-.48.414-1.016.414-1.608 0-.6-.14-1.14-.42-1.62a3.057 3.057 0 0 0-1.146-1.134 3.2 3.2 0 0 0-1.614-.414h-2.244v6.312h2.292zm10.86-5.604a4.832 4.832 0 0 0-1.218-.558 4.115 4.115 0 0 0-1.158-.186c-.488 0-.878.094-1.17.282-.292.188-.438.446-.438.774 0 .296.088.538.264.726.176.188.392.336.648.444.256.108.612.234 1.068.378.568.176 1.028.344 1.38.504.352.16.652.398.9.714.248.316.372.734.372 1.254 0 .48-.13.9-.39 1.26s-.624.638-1.092.834c-.468.196-1.006.294-1.614.294-.616 0-1.216-.12-1.8-.36a4.881 4.881 0 0 1-1.512-.96l.516-.996c.4.392.85.694 1.35.906.5.212.986.318 1.458.318.56 0 1.002-.11 1.326-.33.324-.22.486-.518.486-.894 0-.296-.088-.54-.264-.732a1.861 1.861 0 0 0-.666-.456c-.268-.112-.63-.236-1.086-.372a11.101 11.101 0 0 1-1.368-.492 2.363 2.363 0 0 1-.894-.708c-.244-.312-.366-.724-.366-1.236 0-.448.124-.844.372-1.188s.596-.608 1.044-.792c.448-.184.968-.276 1.56-.276.504 0 .998.074 1.482.222.484.148.914.346 1.29.594l-.48 1.032zM42.454 259.6h5.472l-.012 1.044h-4.308v2.76h3.876v1.044h-3.876V268h-1.152v-8.4zm6.816 0h1.152v8.4H49.27v-8.4zm3.552 0h1.152v7.356h3.672V268h-4.824v-8.4zm6.288 0h5.832v1.044h-4.68v2.592h4.188v1.044h-4.188v2.676h4.824V268H59.11v-8.4zM205.576 273.6h1.14v8.4h-1.164l-4.8-6.504V282H199.6v-8.4h1.164l4.812 6.516V273.6zm3.552 0h5.832v1.044h-4.68v2.592h4.188v1.044h-4.188v2.676h4.824V282h-5.976v-8.4zm14.076 8.4l-.888-2.04h-4.428l-.876 2.04H215.8l3.732-8.4h1.2l3.72 8.4h-1.248zm-4.86-3.084h3.528l-1.776-4.08-1.752 4.08zM231.1 282l-1.668-2.64a5.877 5.877 0 0 1-.468.024h-2.136V282h-1.152v-8.4h3.288c1.064 0 1.886.246 2.466.738.58.492.87 1.19.87 2.094 0 .68-.158 1.252-.474 1.716-.316.464-.77.8-1.362 1.008L232.42 282h-1.32zm-2.136-3.66c.72 0 1.272-.158 1.656-.474.384-.316.576-.782.576-1.398 0-.6-.192-1.054-.576-1.362-.384-.308-.936-.462-1.656-.462h-2.136v3.696h2.136zm5.388-4.74h5.832v1.044h-4.68v2.592h4.188v1.044h-4.188v2.676h4.824V282h-5.976v-8.4zm12.744 1.752a4.832 4.832 0 0 0-1.218-.558 4.115 4.115 0 0 0-1.158-.186c-.488 0-.878.094-1.17.282-.292.188-.438.446-.438.774 0 .296.088.538.264.726.176.188.392.336.648.444.256.108.612.234 1.068.378.568.176 1.028.344 1.38.504.352.16.652.398.9.714.248.316.372.734.372 1.254 0 .48-.13.9-.39 1.26s-.624.638-1.092.834c-.468.196-1.006.294-1.614.294-.616 0-1.216-.12-1.8-.36a4.881 4.881 0 0 1-1.512-.96l.516-.996c.4.392.85.694 1.35.906.5.212.986.318 1.458.318.56 0 1.002-.11 1.326-.33.324-.22.486-.518.486-.894 0-.296-.088-.54-.264-.732a1.861 1.861 0 0 0-.666-.456c-.268-.112-.63-.236-1.086-.372a11.101 11.101 0 0 1-1.368-.492 2.363 2.363 0 0 1-.894-.708c-.244-.312-.366-.724-.366-1.236 0-.448.124-.844.372-1.188s.596-.608 1.044-.792c.448-.184.968-.276 1.56-.276.504 0 .998.074 1.482.222.484.148.914.346 1.29.594l-.48 1.032zm1.404-1.752h6.564v1.056h-2.712V282H251.2v-7.344h-2.7V273.6zm11.028 0H265l-.012 1.044h-4.308v2.76h3.876v1.044h-3.876V282h-1.152v-8.4zm6.816 0h1.152v8.4h-1.152v-8.4zm3.552 0h1.152v7.356h3.672V282h-4.824v-8.4zm6.288 0h5.832v1.044h-4.68v2.592h4.188v1.044h-4.188v2.676h4.824V282h-5.976v-8.4zm12.744 1.752a4.832 4.832 0 0 0-1.218-.558 4.115 4.115 0 0 0-1.158-.186c-.488 0-.878.094-1.17.282-.292.188-.438.446-.438.774 0 .296.088.538.264.726.176.188.392.336.648.444.256.108.612.234 1.068.378.568.176 1.028.344 1.38.504.352.16.652.398.9.714.248.316.372.734.372 1.254 0 .48-.13.9-.39 1.26s-.624.638-1.092.834c-.468.196-1.006.294-1.614.294-.616 0-1.216-.12-1.8-.36a4.881 4.881 0 0 1-1.512-.96l.516-.996c.4.392.85.694 1.35.906.5.212.986.318 1.458.318.56 0 1.002-.11 1.326-.33.324-.22.486-.518.486-.894 0-.296-.088-.54-.264-.732a1.861 1.861 0 0 0-.666-.456c-.268-.112-.63-.236-1.086-.372a11.101 11.101 0 0 1-1.368-.492 2.363 2.363 0 0 1-.894-.708c-.244-.312-.366-.724-.366-1.236 0-.448.124-.844.372-1.188s.596-.608 1.044-.792c.448-.184.968-.276 1.56-.276.504 0 .998.074 1.482.222.484.148.914.346 1.29.594l-.48 1.032zm1.404-1.752h6.564v1.056h-2.712V282h-1.152v-7.344h-2.7V273.6zm14.124 8.4l-.888-2.04h-4.428l-.876 2.04h-1.212l3.732-8.4h1.2l3.72 8.4h-1.248zm-4.86-3.084h3.528l-1.776-4.08-1.752 4.08zm13.416-3.3a3.467 3.467 0 0 0-1.116-.786 3.196 3.196 0 0 0-1.308-.282c-.592 0-1.136.144-1.632.432a3.203 3.203 0 0 0-1.608 2.796c0 .584.144 1.124.432 1.62.288.496.68.888 1.176 1.176.496.288 1.04.432 1.632.432.44 0 .872-.09 1.296-.27.424-.18.8-.426 1.128-.738l.696.756a4.683 4.683 0 0 1-1.476.978 4.352 4.352 0 0 1-1.704.354c-.8 0-1.532-.19-2.196-.57a4.217 4.217 0 0 1-1.572-1.554 4.22 4.22 0 0 1-.576-2.172c0-.784.194-1.502.582-2.154a4.205 4.205 0 0 1 1.59-1.542 4.469 4.469 0 0 1 2.22-.564c.584 0 1.15.11 1.698.33.548.22 1.022.53 1.422.93l-.684.828zM322.36 282h-1.392l-2.952-3.876-1.548 1.68V282h-1.152v-8.4h1.152v4.716l4.296-4.716h1.38l-3.324 3.624 3.54 4.776zm-84.84 8.352a4.832 4.832 0 0 0-1.218-.558 4.115 4.115 0 0 0-1.158-.186c-.488 0-.878.094-1.17.282-.292.188-.438.446-.438.774 0 .296.088.538.264.726.176.188.392.336.648.444.256.108.612.234 1.068.378.568.176 1.028.344 1.38.504.352.16.652.398.9.714.248.316.372.734.372 1.254 0 .48-.13.9-.39 1.26s-.624.638-1.092.834c-.468.196-1.006.294-1.614.294-.616 0-1.216-.12-1.8-.36a4.881 4.881 0 0 1-1.512-.96l.516-.996c.4.392.85.694 1.35.906.5.212.986.318 1.458.318.56 0 1.002-.11 1.326-.33.324-.22.486-.518.486-.894 0-.296-.088-.54-.264-.732a1.861 1.861 0 0 0-.666-.456c-.268-.112-.63-.236-1.086-.372a11.101 11.101 0 0 1-1.368-.492 2.363 2.363 0 0 1-.894-.708c-.244-.312-.366-.724-.366-1.236 0-.448.124-.844.372-1.188s.596-.608 1.044-.792c.448-.184.968-.276 1.56-.276.504 0 .998.074 1.482.222.484.148.914.346 1.29.594l-.48 1.032zm1.404-1.752h6.564v1.056h-2.712V297h-1.152v-7.344h-2.7V288.6zm11.556-.072c.808 0 1.55.188 2.226.564.676.376 1.21.89 1.602 1.542.392.652.588 1.37.588 2.154 0 .784-.196 1.506-.588 2.166a4.255 4.255 0 0 1-1.602 1.56c-.676.38-1.418.57-2.226.57s-1.55-.19-2.226-.57c-.676-.38-1.21-.9-1.602-1.56a4.164 4.164 0 0 1-.588-2.166c0-.784.196-1.502.588-2.154a4.25 4.25 0 0 1 1.596-1.542 4.493 4.493 0 0 1 2.232-.564zm.012 1.032c-.584 0-1.126.144-1.626.432-.5.288-.898.678-1.194 1.17a3.095 3.095 0 0 0-.444 1.626c0 .592.148 1.136.444 1.632.296.496.694.89 1.194 1.182.5.292 1.042.438 1.626.438.584 0 1.122-.146 1.614-.438a3.298 3.298 0 0 0 1.176-1.182c.292-.496.438-1.04.438-1.632 0-.592-.146-1.134-.438-1.626a3.264 3.264 0 0 0-1.176-1.17 3.138 3.138 0 0 0-1.614-.432zm11.484 7.44l-1.668-2.64a5.877 5.877 0 0 1-.468.024h-2.136V297h-1.152v-8.4h3.288c1.064 0 1.886.246 2.466.738.58.492.87 1.19.87 2.094 0 .68-.158 1.252-.474 1.716-.316.464-.77.8-1.362 1.008l1.956 2.844h-1.32zm-2.136-3.66c.72 0 1.272-.158 1.656-.474.384-.316.576-.782.576-1.398 0-.6-.192-1.054-.576-1.362-.384-.308-.936-.462-1.656-.462h-2.136v3.696h2.136zm11.628 3.66l-.888-2.04h-4.428l-.876 2.04h-1.212l3.732-8.4h1.2l3.72 8.4h-1.248zm-4.86-3.084h3.528l-1.776-4.08-1.752 4.08zm13.14-1.02h1.02v3.084a5.1 5.1 0 0 1-1.488.804c-.568.2-1.132.3-1.692.3-.808 0-1.548-.19-2.22-.57a4.222 4.222 0 0 1-1.59-1.56 4.197 4.197 0 0 1-.582-2.166c0-.784.196-1.502.588-2.154a4.226 4.226 0 0 1 1.608-1.542 4.584 4.584 0 0 1 2.256-.564c.584 0 1.154.104 1.71.312a4.592 4.592 0 0 1 1.446.852l-.66.84a3.658 3.658 0 0 0-1.158-.726 3.617 3.617 0 0 0-1.338-.258 3.28 3.28 0 0 0-2.85 1.608 3.159 3.159 0 0 0-.438 1.632c0 .592.148 1.138.444 1.638.296.5.696.896 1.2 1.188a3.245 3.245 0 0 0 1.656.438c.352 0 .71-.058 1.074-.174a4.017 4.017 0 0 0 1.014-.486v-2.496zm3.204-4.296h5.832v1.044h-4.68v2.592h4.188v1.044h-4.188v2.676h4.824V297h-5.976v-8.4zM443.802.6l-3.144 5.52V9h-1.152V6.168L436.314.6h1.176l2.592 4.284L442.626.6h1.176zm4.908-.072c.808 0 1.55.188 2.226.564.676.376 1.21.89 1.602 1.542.392.652.588 1.37.588 2.154 0 .784-.196 1.506-.588 2.166a4.255 4.255 0 0 1-1.602 1.56c-.676.38-1.418.57-2.226.57s-1.55-.19-2.226-.57c-.676-.38-1.21-.9-1.602-1.56a4.164 4.164 0 0 1-.588-2.166c0-.784.196-1.502.588-2.154a4.25 4.25 0 0 1 1.596-1.542 4.493 4.493 0 0 1 2.232-.564zm.012 1.032c-.584 0-1.126.144-1.626.432-.5.288-.898.678-1.194 1.17a3.095 3.095 0 0 0-.444 1.626c0 .592.148 1.136.444 1.632.296.496.694.89 1.194 1.182.5.292 1.042.438 1.626.438.584 0 1.122-.146 1.614-.438a3.298 3.298 0 0 0 1.176-1.182c.292-.496.438-1.04.438-1.632 0-.592-.146-1.134-.438-1.626a3.264 3.264 0 0 0-1.176-1.17 3.138 3.138 0 0 0-1.614-.432zm7.032 4.008c0 .776.214 1.382.642 1.818.428.436 1.018.654 1.77.654.744 0 1.328-.218 1.752-.654.424-.436.636-1.042.636-1.818V.6h1.152v4.968c0 1.096-.314 1.956-.942 2.58-.628.624-1.494.936-2.598.936-1.112 0-1.984-.312-2.616-.936-.632-.624-.948-1.484-.948-2.58V.6h1.152v4.968zM469.35 9l-1.668-2.64a5.877 5.877 0 0 1-.468.024h-2.136V9h-1.152V.6h3.288c1.064 0 1.886.246 2.466.738.58.492.87 1.19.87 2.094 0 .68-.158 1.252-.474 1.716-.316.464-.77.8-1.362 1.008L470.67 9h-1.32zm-2.136-3.66c.72 0 1.272-.158 1.656-.474.384-.316.576-.782.576-1.398 0-.6-.192-1.054-.576-1.362-.384-.308-.936-.462-1.656-.462h-2.136V5.34h2.136zm13.44-2.988a4.832 4.832 0 0 0-1.218-.558 4.115 4.115 0 0 0-1.158-.186c-.488 0-.878.094-1.17.282-.292.188-.438.446-.438.774 0 .296.088.538.264.726.176.188.392.336.648.444.256.108.612.234 1.068.378.568.176 1.028.344 1.38.504.352.16.652.398.9.714.248.316.372.734.372 1.254 0 .48-.13.9-.39 1.26s-.624.638-1.092.834c-.468.196-1.006.294-1.614.294-.616 0-1.216-.12-1.8-.36a4.881 4.881 0 0 1-1.512-.96l.516-.996c.4.392.85.694 1.35.906.5.212.986.318 1.458.318.56 0 1.002-.11 1.326-.33.324-.22.486-.518.486-.894 0-.296-.088-.54-.264-.732a1.861 1.861 0 0 0-.666-.456c-.268-.112-.63-.236-1.086-.372a11.101 11.101 0 0 1-1.368-.492 2.363 2.363 0 0 1-.894-.708c-.244-.312-.366-.724-.366-1.236 0-.448.124-.844.372-1.188s.596-.608 1.044-.792c.448-.184.968-.276 1.56-.276.504 0 .998.074 1.482.222.484.148.914.346 1.29.594l-.48 1.032zM482.058.6h6.564v1.056h-2.712V9h-1.152V1.656h-2.7V.6zm11.556-.072c.808 0 1.55.188 2.226.564.676.376 1.21.89 1.602 1.542.392.652.588 1.37.588 2.154 0 .784-.196 1.506-.588 2.166a4.255 4.255 0 0 1-1.602 1.56c-.676.38-1.418.57-2.226.57s-1.55-.19-2.226-.57c-.676-.38-1.21-.9-1.602-1.56a4.164 4.164 0 0 1-.588-2.166c0-.784.196-1.502.588-2.154a4.25 4.25 0 0 1 1.596-1.542 4.493 4.493 0 0 1 2.232-.564zm.012 1.032c-.584 0-1.126.144-1.626.432-.5.288-.898.678-1.194 1.17a3.095 3.095 0 0 0-.444 1.626c0 .592.148 1.136.444 1.632.296.496.694.89 1.194 1.182.5.292 1.042.438 1.626.438.584 0 1.122-.146 1.614-.438a3.298 3.298 0 0 0 1.176-1.182c.292-.496.438-1.04.438-1.632 0-.592-.146-1.134-.438-1.626a3.264 3.264 0 0 0-1.176-1.17 3.138 3.138 0 0 0-1.614-.432zM505.11 9l-1.668-2.64a5.877 5.877 0 0 1-.468.024h-2.136V9h-1.152V.6h3.288c1.064 0 1.886.246 2.466.738.58.492.87 1.19.87 2.094 0 .68-.158 1.252-.474 1.716-.316.464-.77.8-1.362 1.008L506.43 9h-1.32zm-2.136-3.66c.72 0 1.272-.158 1.656-.474.384-.316.576-.782.576-1.398 0-.6-.192-1.054-.576-1.362-.384-.308-.936-.462-1.656-.462h-2.136V5.34h2.136zM514.602 9l-.888-2.04h-4.428L508.41 9h-1.212L510.93.6h1.2l3.72 8.4h-1.248zm-4.86-3.084h3.528l-1.776-4.08-1.752 4.08zm13.14-1.02h1.02V7.98a5.1 5.1 0 0 1-1.488.804c-.568.2-1.132.3-1.692.3-.808 0-1.548-.19-2.22-.57a4.222 4.222 0 0 1-1.59-1.56 4.197 4.197 0 0 1-.582-2.166c0-.784.196-1.502.588-2.154a4.226 4.226 0 0 1 1.608-1.542 4.584 4.584 0 0 1 2.256-.564c.584 0 1.154.104 1.71.312a4.592 4.592 0 0 1 1.446.852l-.66.84a3.658 3.658 0 0 0-1.158-.726 3.617 3.617 0 0 0-1.338-.258 3.28 3.28 0 0 0-2.85 1.608 3.159 3.159 0 0 0-.438 1.632c0 .592.148 1.138.444 1.638.296.5.696.896 1.2 1.188a3.245 3.245 0 0 0 1.656.438c.352 0 .71-.058 1.074-.174a4.017 4.017 0 0 0 1.014-.486V4.896zM526.086.6h5.832v1.044h-4.68v2.592h4.188V5.28h-4.188v2.676h4.824V9h-5.976V.6zM432.198 373.6l-3.144 5.52V382h-1.152v-2.832l-3.192-5.568h1.176l2.592 4.284 2.544-4.284h1.176zm4.908-.072c.808 0 1.55.188 2.226.564.676.376 1.21.89 1.602 1.542.392.652.588 1.37.588 2.154 0 .784-.196 1.506-.588 2.166a4.255 4.255 0 0 1-1.602 1.56c-.676.38-1.418.57-2.226.57s-1.55-.19-2.226-.57c-.676-.38-1.21-.9-1.602-1.56a4.164 4.164 0 0 1-.588-2.166c0-.784.196-1.502.588-2.154a4.25 4.25 0 0 1 1.596-1.542 4.493 4.493 0 0 1 2.232-.564zm.012 1.032c-.584 0-1.126.144-1.626.432-.5.288-.898.678-1.194 1.17a3.095 3.095 0 0 0-.444 1.626c0 .592.148 1.136.444 1.632.296.496.694.89 1.194 1.182.5.292 1.042.438 1.626.438.584 0 1.122-.146 1.614-.438a3.298 3.298 0 0 0 1.176-1.182c.292-.496.438-1.04.438-1.632 0-.592-.146-1.134-.438-1.626a3.264 3.264 0 0 0-1.176-1.17 3.138 3.138 0 0 0-1.614-.432zm7.032 4.008c0 .776.214 1.382.642 1.818.428.436 1.018.654 1.77.654.744 0 1.328-.218 1.752-.654.424-.436.636-1.042.636-1.818V373.6h1.152v4.968c0 1.096-.314 1.956-.942 2.58-.628.624-1.494.936-2.598.936-1.112 0-1.984-.312-2.616-.936-.632-.624-.948-1.484-.948-2.58V373.6h1.152v4.968zM457.746 382l-1.668-2.64a5.877 5.877 0 0 1-.468.024h-2.136V382h-1.152v-8.4h3.288c1.064 0 1.886.246 2.466.738.58.492.87 1.19.87 2.094 0 .68-.158 1.252-.474 1.716-.316.464-.77.8-1.362 1.008l1.956 2.844h-1.32zm-2.136-3.66c.72 0 1.272-.158 1.656-.474.384-.316.576-.782.576-1.398 0-.6-.192-1.054-.576-1.362-.384-.308-.936-.462-1.656-.462h-2.136v3.696h2.136zm14.772 3.66l-.888-2.04h-4.428l-.876 2.04h-1.212l3.732-8.4h1.2l3.72 8.4h-1.248zm-4.86-3.084h3.528l-1.776-4.08-1.752 4.08zm10.572-5.316c1.048 0 1.858.248 2.43.744.572.496.858 1.192.858 2.088 0 .936-.288 1.662-.864 2.178-.576.516-1.384.774-2.424.774h-2.088V382h-1.152v-8.4h3.24zm-.048 4.74c.72 0 1.272-.158 1.656-.474.384-.316.576-.782.576-1.398 0-.6-.192-1.054-.576-1.362-.384-.308-.936-.462-1.656-.462l-2.04.012v3.684h2.04zm8.1-4.74c1.048 0 1.858.248 2.43.744.572.496.858 1.192.858 2.088 0 .936-.288 1.662-.864 2.178-.576.516-1.384.774-2.424.774h-2.088V382h-1.152v-8.4h3.24zm-.048 4.74c.72 0 1.272-.158 1.656-.474.384-.316.576-.782.576-1.398 0-.6-.192-1.054-.576-1.362-.384-.308-.936-.462-1.656-.462l-2.04.012v3.684h2.04zm4.86-4.74h1.152v7.356h3.672V382h-4.824v-8.4zm6.288 0h1.152v8.4h-1.152v-8.4zm9.636 2.016a3.467 3.467 0 0 0-1.116-.786 3.196 3.196 0 0 0-1.308-.282c-.592 0-1.136.144-1.632.432a3.203 3.203 0 0 0-1.608 2.796c0 .584.144 1.124.432 1.62.288.496.68.888 1.176 1.176.496.288 1.04.432 1.632.432.44 0 .872-.09 1.296-.27.424-.18.8-.426 1.128-.738l.696.756a4.683 4.683 0 0 1-1.476.978 4.352 4.352 0 0 1-1.704.354c-.8 0-1.532-.19-2.196-.57a4.217 4.217 0 0 1-1.572-1.554 4.22 4.22 0 0 1-.576-2.172c0-.784.194-1.502.582-2.154a4.205 4.205 0 0 1 1.59-1.542 4.469 4.469 0 0 1 2.22-.564c.584 0 1.15.11 1.698.33.548.22 1.022.53 1.422.93l-.684.828zm8.544 6.384l-.888-2.04h-4.428l-.876 2.04h-1.212l3.732-8.4h1.2l3.72 8.4h-1.248zm-4.86-3.084h3.528l-1.776-4.08-1.752 4.08zm6.252-5.316h6.564v1.056h-2.712V382h-1.152v-7.344h-2.7V373.6zm7.884 0h1.152v8.4h-1.152v-8.4zm7.224-.072c.808 0 1.55.188 2.226.564.676.376 1.21.89 1.602 1.542.392.652.588 1.37.588 2.154 0 .784-.196 1.506-.588 2.166a4.255 4.255 0 0 1-1.602 1.56c-.676.38-1.418.57-2.226.57s-1.55-.19-2.226-.57c-.676-.38-1.21-.9-1.602-1.56a4.164 4.164 0 0 1-.588-2.166c0-.784.196-1.502.588-2.154a4.25 4.25 0 0 1 1.596-1.542 4.493 4.493 0 0 1 2.232-.564zm.012 1.032c-.584 0-1.126.144-1.626.432-.5.288-.898.678-1.194 1.17a3.095 3.095 0 0 0-.444 1.626c0 .592.148 1.136.444 1.632.296.496.694.89 1.194 1.182.5.292 1.042.438 1.626.438.584 0 1.122-.146 1.614-.438a3.298 3.298 0 0 0 1.176-1.182c.292-.496.438-1.04.438-1.632 0-.592-.146-1.134-.438-1.626a3.264 3.264 0 0 0-1.176-1.17 3.138 3.138 0 0 0-1.614-.432zm12.036-.96h1.14v8.4h-1.164l-4.8-6.504V382h-1.152v-8.4h1.164l4.812 6.516V373.6z" fill="#151A1F"/></g></svg>