<svg fill="none" height="22" viewBox="0 0 76 22" width="76" xmlns="http://www.w3.org/2000/svg"><path clip-rule="evenodd" d="m17.6863 3.426c-1.0558 0-2.1123.01858-3.1675-.00725-.5723-.01428-.9575.08496-.9287.78258.0224.54989-.034 1.07146.778 1.06195 1.0695-.01246 1.4295.64596 1.4263 1.62135-.0079 2.56458.01 5.12917-.0075 7.69377-.0079 1.1947-.2275 1.4627-1.431 1.5357-.7189.0435-.7518.4201-.7672.9597-.0174.6084.1876.9045.8372.8961 2.1867-.028 4.374-.0382 6.5607-.0328.7107.0016.7669-.4289.7628-.9702-.0036-.5016-.0645-.8347-.7178-.8827-1.2685-.0929-1.4677-.3424-1.4747-1.608-.0136-2.4891-.0123-4.97827-.0014-7.4674.0059-1.33452.1767-1.58194 1.4906-1.76727.8155-.1151.6734-.64166.6965-1.15598.0297-.66318-.3867-.69762-.889-.68923-1.0556.01744-2.1115.00543-3.1673.00543zm23.5636 6.9114c0 1.8119.0027 3.6236-.0011 5.4352-.0019.8803-.3204 1.5561-1.2514 1.7707-.2445.0564-.5121.0131-.7692.0156.0741-.2215.1167-.4601.2275-.6613.6987-1.2682.4617-2.413-.615-2.8954-1.0964-.4912-2.3287.0856-2.8317 1.3255-.7628 1.881.4507 3.7685 2.7028 4.2047 3.7151.7196 6.6311-1.6078 6.6943-5.4101.0506-3.0567.003-6.11477.0198-9.17215.0074-1.3617.2274-1.68706 1.5375-1.92066.9167-.16358.616-.78824.6468-1.29305.0388-.63372-.4203-.60948-.8507-.56439-2.401.25127-4.7984.54287-7.2037.74724-.9534.08088-.931.64641-.8984 1.32024.0408.84149.6122.55419 1.067.51885 1.1714-.09131 1.5121.19281 1.5259 1.37009.02 1.73623.005 3.47268.005 5.20893zm11.315-2.9611c.3388-1.03816.5941-2.10351.8864-3.15662.0394-.14365.0827-.28639.1242-.42935.0895.14636.2154.28208.2626.44091.2462.83084.4715 1.66803.7071 2.50227.4543 1.60618.4549 1.60595-1.2826 1.67641-.9467.24244-.9573-.23699-.6977-1.03362zm3.7976 7.1307c1.4304-.0707 2.8639-.1063 4.2879-.2431.2776-.0267.7033-.4287.7285-.6897.0335-.3469-.2121-1.0073-.4192-1.0418-.8836-.1463-1.1553-.7529-1.3946-1.45-1.0023-2.92193-2.0051-5.84359-3.0093-8.76503-.7167-2.085147-.7157-2.0208-2.9314-1.936742-.9847.037385-1.3472.443857-1.6168 1.316392-1.0108 3.27511-2.0956 6.52779-3.156 9.78748-.3367 1.0341-.7989 1.9198-1.9682 2.3002-.2592.0845-.4108.7581-.4362 1.1714-.0095.154.5008.5075.7452.483 1.7234-.1731 3.4455-.3847 5.15-.686.2443-.0431.479-.6168.5608-.9804.0979-.4357-.0346-.8044-.6577-.7584-.8454.0628-1.0133-.4796-.9041-1.1822.2108-1.3504.4156-1.526 1.8004-1.6112.4137-.0251.8392-.0226 1.2353-.1255.9815-.25512 1.2362.3396 1.4333 1.0991.1932.7454.1767 1.3937-.7087 1.6046-.7912.1885-.6453.7966-.525 1.2459.063.2348.558.404.8877.5014.2773.0818.5979.0168.8993.0168-.0005-.0186-.0007-.0374-.0012-.0562zm11.1105-11.21604c.0059-1.4691.1287-1.56585 1.5341-1.21149 1.1852.29863 1.7643 1.28445 1.5951 2.71548-.1543 1.30257-.8889 1.97119-2.1273 2.02443-.7035.03013-1.0606-.18262-1.0064-.9405.0373-.52225.007-1.04994.007-1.57491-.0027-.3376-.0039-.67519-.0025-1.01301zm.0061 6.78454c.1181-.53906.0956-1.32844.4357-1.55229.6666-.43887 2.1699.18466 2.5755.90176.5209.92033.5537 1.87783-.0075 2.79293-.5902.9627-1.5611.7722-2.4461.6657-.208-.0249-.4883-.4117-.529-.6652-.083-.5143-.0247-1.0513-.0247-1.579h-.0102c0-.1885-.0331-.3843.0063-.5639zm-4.2562-10.0567088c-.4336.0496195-1.0606-.2605592-1.1201.5442288-.0456.61628-.0814 1.15054.7898 1.34131.3745.08202.8863.70532.8965 1.09458.075 2.824.0682 5.65186-.004 8.47609-.0089.3408-.535.9122-.8728.9527-.8286.1002-.8283.5601-.8274 1.1683.0011.7404.4973.7066 1.001.7347 2.2569.126 4.5119.2891 6.77.3809.8202.0331 1.6596-.0247 2.4676-.1679 1.2176-.2159 2.1966-.8231 2.5428-2.1103.3519-1.3073.0265-2.47893-.9097-3.43348-.3863-.39378-.9115-.65208-1.3776-.96633-.1515-.10219-.3149-.18647-.473-.27914.1586-.12779.2986-.29817.4787-.37702 2.7005-1.1809 2.2118-4.51651.488-5.6607-.9373-.62217-2.0917-1.075996-3.2026-1.242074-1.9677-.294092-3.9772-.310858-6.2192-.4603963.0236 0-.2048-.0208447-.428.0045315zm-34.9196 5.7651488c.0618-.50299-.2721-1.17002.5732-1.37439.943-.22839 1.9347.05347 2.3197.70963.9443 1.60844-.0986 3.71897-1.9325 3.94463-.6441.0793-1.0236-.05664-.9711-.80524.0338-.48532.0064-.97494.0064-1.46275h-.0034c0-.3376-.0331-.67927.0077-1.01188zm-.0077 6.80606c.0036-1.5212.0537-1.5797 1.4127-1.6565 1.2162-.0691 1.8719.462 1.9952 1.6152.1887 1.7693-.7094 2.8299-2.5098 3.0277-.604.0664-.9421-.0469-.8999-.7359.0294-.486.0056-.9752.0056-1.4627h-.0041c0-.2626-.0004-.5252.0003-.7878zm1.4965 4.5634c1.2912-.1958 2.6087-.4498 3.8128-.9321 1.5114-.6054 2.3744-1.8249 2.3076-3.5452-.0632-1.6243-.9686-2.5519-2.4955-2.93325-.4615-.11532-.4991-.27619-.1044-.54037.1565-.10468.3151-.20732.4649-.32128 1.2851-.98016 1.8919-2.25078 1.5079-3.859-.378-1.58216-1.5833-2.20455-3.0667-2.42342-.3711-.05506-.7545-.10694-1.1249-.07432-2.5146.22068-5.0266.47241-7.5411.69581-.6079.05392-.732.40307-.706.92192.0227.45088-.0677.91604.643.92918.7967.01427 1.1213.54831 1.1243 1.28059.0109 2.7148.0118 5.42984.0004 8.14464-.0034.7601-.3514 1.2541-1.1331 1.4847-.2594.0764-.5641.4615-.6031.74-.1393.9922-.002 1.0658 1.9633.9715 1.2808-.1341 3.1269-.263 4.9506-.5394zm-29.7921-.138c.171969-.2433.335328-.493.517493-.7282.720957-.9319 2.020127-1.1975 2.924607-.6036.8066.5293.96814 1.5314.49121 2.6369-.14841.3437-.14002.7547-.20346 1.1349.58274-.1362 1.31049-.1088 1.7045-.4579.34213-.3032.41486-1.0314.4203-1.5736.03534-3.4314.02605-6.8638.01495-10.29547-.0043-1.26949-.35572-1.71697-1.65013-1.80262-.82382-.05438-.86188-.4545-.88137-1.0871-.02356-.76831.39356-.8433.99647-.83718 2.48868.02424 4.97781.03647 7.46673.0256.6061-.00272.8956.17673.897.83311.0016.64279-.1629.94209-.8832.9729-1.335.05687-1.5964.38268-1.601 1.76116-.0095 2.90376-.0867 5.8109.0193 8.7108.1146 3.1288-.98446 5.346-4.11593 6.2949h-2.71887c-1.44395-.5175-2.666316-1.3119-3.3986-2.7189z" fill="#786f90" fill-rule="evenodd"/></svg>