<svg width="24" height="24" viewBox="0 0 24 24" fill="none" xmlns="http://www.w3.org/2000/svg">
<g clip-path="url(#clip0)">
<circle cx="12" cy="12" r="12" fill="#CEC3EA"/>
<path d="M23.8823 10.742C23.8817 10.7369 23.881 10.7318 23.8805 10.7265C23.2317 4.75869 18.1771 0.0468445 11.9531 0.0468445C5.73085 0.0468445 0.674752 4.75668 0.0256425 10.7265C0.0250932 10.7318 0.0243608 10.7369 0.0239946 10.742C-0.744316 17.8934 4.83894 24.0461 11.9531 24.0461C19.0496 24.0461 24.6522 17.9113 23.8823 10.742ZM21.9959 10.7528C21.5828 12.1435 19.7858 13.155 18.4206 13.6893C18.3966 10.2108 17.6946 5.63247 15.8954 2.71561C19.0547 4.05081 21.5241 7.02883 21.9959 10.7528ZM8.95515 20.2637C8.41755 19.4721 7.80397 18.1867 7.51979 16.2288C10.3614 16.8189 13.5449 16.8189 16.3865 16.2288C16.1023 18.1867 15.4887 19.4721 14.9511 20.2637C13.2338 22.7915 10.6844 22.809 8.95515 20.2637ZM7.36378 14.2738C7.30665 11.5014 7.74427 8.09652 8.74659 5.48178C9.25618 4.15225 10.3504 1.92184 11.9531 1.92184C13.5557 1.92184 14.6499 4.15225 15.1595 5.48178C16.1613 8.09524 16.5994 11.4995 16.5423 14.2738C13.6604 14.9701 10.2514 14.9714 7.36378 14.2738ZM8.01069 2.71561C6.21443 5.6279 5.50965 10.2013 5.48567 13.6893C4.12062 13.1552 2.32325 12.1437 1.91017 10.7528C2.38203 7.03012 4.85011 4.05136 8.01069 2.71561ZM1.99146 13.8676C3.03535 14.7024 4.31159 15.2957 5.57063 15.7108C5.78321 17.8906 6.37648 19.6552 7.19697 20.9899C4.56538 19.586 2.55854 17.0079 1.99146 13.8676ZM16.715 20.9868C17.5855 19.5701 18.135 17.7747 18.3355 15.7106C19.5951 15.2955 20.8709 14.702 21.9148 13.8676C21.3419 17.039 19.3103 19.6001 16.715 20.9868Z" fill="#786F90"/>
</g>
<defs>
<clipPath id="clip0">
<rect width="24" height="24" fill="white"/>
</clipPath>
</defs>
</svg>
