<svg width="24" height="24" viewBox="0 0 24 24" fill="none" xmlns="http://www.w3.org/2000/svg">
<path d="M20 3H4V4H3V20H4V21H20V20H21V4H20V3Z" fill="#CEC3EA"/>
<path d="M12 13.1719C12.6472 13.1719 13.1719 12.6472 13.1719 12C13.1719 11.3528 12.6472 10.8281 12 10.8281C11.3528 10.8281 10.8281 11.3528 10.8281 12C10.8281 12.6472 11.3528 13.1719 12 13.1719Z" fill="#786F90"/>
<path d="M23.0625 5.625C23.5803 5.625 24 5.20528 24 4.6875V0.9375C24 0.419719 23.5803 0 23.0625 0H19.3125C18.7947 0 18.375 0.419719 18.375 0.9375V1.875H5.625V0.9375C5.625 0.419719 5.20528 0 4.6875 0H0.9375C0.419719 0 0 0.419719 0 0.9375V4.6875C0 5.20528 0.419719 5.625 0.9375 5.625H1.875V18.375H0.9375C0.419719 18.375 0 18.7947 0 19.3125V23.0625C0 23.5803 0.419719 24 0.9375 24H4.6875C5.20528 24 5.625 23.5803 5.625 23.0625V22.125H18.375V23.0625C18.375 23.5803 18.7947 24 19.3125 24H23.0625C23.5803 24 24 23.5803 24 23.0625V19.3125C24 18.7947 23.5803 18.375 23.0625 18.375H22.125V5.625H23.0625ZM1.875 1.875H3.75V3.75H1.875V1.875ZM3.75 22.125H1.875V20.25H3.75V22.125ZM18.375 19.3125V20.25H5.625V19.3125C5.625 18.7947 5.20528 18.375 4.6875 18.375H3.75V5.625H4.6875C5.20528 5.625 5.625 5.20528 5.625 4.6875V3.75H18.375V4.6875C18.375 5.20528 18.7947 5.625 19.3125 5.625H20.25V18.375H19.3125C18.7947 18.375 18.375 18.7947 18.375 19.3125ZM22.125 22.125H20.25V20.25H22.125V22.125ZM20.25 3.75V1.875H22.125V3.75H20.25Z" fill="#786F90"/>
</svg>
