<svg width="32" height="32" viewBox="0 0 32 32" fill="none" xmlns="http://www.w3.org/2000/svg">
<g clip-path="url(#clip0)">
<path d="M25.0352 10.5059H24.9761C24.4072 5.56202 19.9382 2.01539 14.9944 2.58448C10.834 3.06324 7.55151 6.34547 7.07275 10.5059H7.01392C3.69604 10.5059 1.00659 13.1953 1.00659 16.5132C1.00659 19.8308 3.69604 22.5203 7.01392 22.5203H25.0352C28.353 22.5203 31.0425 19.8308 31.0425 16.5132C31.0425 13.1956 28.3528 10.5059 25.0352 10.5059Z" fill="#CEC3EA"/>
<path d="M25.8433 9.55687C24.7624 4.13402 19.4902 0.614239 14.0674 1.69505C10.1011 2.48558 6.99974 5.58494 6.20678 9.55076C2.36181 9.99388 -0.396251 13.47 0.0466198 17.3152C0.454335 20.854 3.45165 23.5239 7.01391 23.5215H12.0198C12.5727 23.5215 13.021 23.0732 13.021 22.5202C13.021 21.9673 12.5727 21.519 12.0198 21.519H7.01391C4.24901 21.5027 2.02098 19.2483 2.03734 16.4836C2.0537 13.7187 4.30809 11.4907 7.07274 11.5071C7.58324 11.5071 8.01195 11.1233 8.0681 10.6159C8.5764 6.22191 12.5508 3.07176 16.9451 3.58006C20.6394 4.00731 23.5537 6.92161 23.9809 10.6159C24.0649 11.1323 24.5122 11.5105 25.0351 11.5071C27.8 11.5071 30.0412 13.7483 30.0412 16.5132C30.0412 19.2778 27.8 21.519 25.0351 21.519H20.0293C19.4763 21.519 19.0281 21.9673 19.0281 22.5202C19.0281 23.0732 19.4763 23.5215 20.0293 23.5215H25.0351C28.9058 23.4973 32.0239 20.3401 31.9997 16.4697C31.978 12.9451 29.3418 9.98509 25.8433 9.55687Z" fill="#786F90"/>
<path d="M19.5637 19.4665C19.9478 19.8642 20.5818 19.8752 20.9795 19.4912C21.3772 19.1071 21.3882 18.4734 21.0042 18.0754C20.9961 18.0671 20.9878 18.0591 20.9795 18.0508L16.7334 13.8039C16.3428 13.4123 15.709 13.4116 15.3174 13.802C15.3169 13.8027 15.3162 13.8032 15.3157 13.8039L11.0696 18.051C10.6719 18.435 10.6609 19.0688 11.0449 19.4665C11.4292 19.8642 12.063 19.8755 12.4607 19.4912C12.469 19.4831 12.4773 19.4748 12.4854 19.4665L15.0234 16.9275V29.5285C15.0234 30.0815 15.4717 30.5298 16.0244 30.5298C16.5774 30.5298 17.0256 30.0815 17.0256 29.5285V16.9275L19.5637 19.4665Z" fill="#786F90"/>
</g>
<defs>
<clipPath id="clip0">
<rect width="32" height="32" fill="white"/>
</clipPath>
</defs>
</svg>
